<?xml version="1.0" encoding="UTF-8"?>
<!DOCTYPE svg PUBLIC "-//W3C//DTD SVG 1.1//EN" "http://www.w3.org/Graphics/SVG/1.1/DTD/svg11.dtd">
<svg xmlns="http://www.w3.org/2000/svg" version="1.1" width="284px" height="64px" style="shape-rendering:geometricPrecision; text-rendering:geometricPrecision; image-rendering:optimizeQuality; fill-rule:evenodd; clip-rule:evenodd" xmlns:xlink="http://www.w3.org/1999/xlink">
<g><path style="opacity:0.947" fill="#000000" d="M 10.5,9.5 C 18.8599,9.16879 27.1932,9.50212 35.5,10.5C 30.5,21.1667 25.5,31.8333 20.5,42.5C 16.2172,43.4922 11.8839,43.8256 7.5,43.5C 8.50018,32.1655 9.50018,20.8322 10.5,9.5 Z"/></g>
<g><path style="opacity:0.732" fill="#000000" d="M 157.5,18.5 C 162.203,18.4372 166.87,18.7705 171.5,19.5C 171.662,21.5273 171.495,23.5273 171,25.5C 168.43,24.5844 165.763,23.9177 163,23.5C 158.01,24.0838 157.51,25.5838 161.5,28C 165.869,28.3337 169.369,30.167 172,33.5C 173.323,41.0119 170.156,44.6786 162.5,44.5C 159.158,44.519 155.991,43.8524 153,42.5C 152.333,40.5 152.333,38.5 153,36.5C 157.483,38.8172 161.983,38.9839 166.5,37C 163.11,34.8898 159.443,33.2232 155.5,32C 151.188,26.7307 151.855,22.2307 157.5,18.5 Z"/></g>
<g><path style="opacity:0.818" fill="#000000" d="M 207.5,18.5 C 219.478,17.9773 224.645,23.644 223,35.5C 220.401,42.8236 215.234,45.6569 207.5,44C 198.95,40.038 196.45,33.538 200,24.5C 202.109,21.8782 204.609,19.8782 207.5,18.5 Z M 210.5,23.5 C 217.236,25.6474 219.07,29.9807 216,36.5C 212.667,40.5 209.333,40.5 206,36.5C 203.098,30.4662 204.598,26.1329 210.5,23.5 Z"/></g>
<g><path style="opacity:0.988" fill="#000000" d="M 42.5,19.5 C 46.8333,19.5 51.1667,19.5 55.5,19.5C 54.4998,30.8345 53.4998,42.1678 52.5,53.5C 44.1401,53.8312 35.8068,53.4979 27.5,52.5C 32.7859,41.5974 37.7859,30.5974 42.5,19.5 Z"/></g>
<g><path style="opacity:0.893" fill="#000000" d="M 79.5,19.5 C 81.1667,19.5 82.8333,19.5 84.5,19.5C 84.335,22.8499 84.5017,26.1832 85,29.5C 87.5,26.3333 90,23.1667 92.5,20C 95.1667,19.3333 97.8333,19.3333 100.5,20C 97.3092,23.69 94.3092,27.5233 91.5,31.5C 95.0199,35.1855 98.3532,39.0188 101.5,43C 98.8333,43.6667 96.1667,43.6667 93.5,43C 90.2959,40.1312 87.4626,36.9646 85,33.5C 84.5017,36.8168 84.335,40.1501 84.5,43.5C 82.8333,43.5 81.1667,43.5 79.5,43.5C 79.5,35.5 79.5,27.5 79.5,19.5 Z"/></g>
<g><path style="opacity:1" fill="#000000" d="M 110.5,23.5 C 110.5,22.1667 110.5,20.8333 110.5,19.5C 114.833,19.5 119.167,19.5 123.5,19.5C 123.5,20.8333 123.5,22.1667 123.5,23.5C 119.167,23.5 114.833,23.5 110.5,23.5 Z"/></g>
<g><path style="opacity:0.846" fill="#000000" d="M 127.5,19.5 C 129.924,19.1924 132.257,19.5258 134.5,20.5C 137.167,27.1667 139.833,27.1667 142.5,20.5C 144.833,19.1667 147.167,19.1667 149.5,20.5C 146.75,24.3318 144.25,28.3318 142,32.5C 141.501,36.1516 141.335,39.8183 141.5,43.5C 139.5,43.5 137.5,43.5 135.5,43.5C 135.665,39.8183 135.499,36.1516 135,32.5C 131.971,28.4385 129.471,24.1051 127.5,19.5 Z"/></g>
<g><path style="opacity:0.9" fill="#000000" d="M 175.5,19.5 C 182.167,19.5 188.833,19.5 195.5,19.5C 195.5,20.8333 195.5,22.1667 195.5,23.5C 193.167,23.5 190.833,23.5 188.5,23.5C 188.5,30.1667 188.5,36.8333 188.5,43.5C 186.5,43.5 184.5,43.5 182.5,43.5C 182.5,36.8333 182.5,30.1667 182.5,23.5C 180.167,23.5 177.833,23.5 175.5,23.5C 175.5,22.1667 175.5,20.8333 175.5,19.5 Z"/></g>
<g><path style="opacity:0.959" fill="#000000" d="M 228.5,19.5 C 231.518,19.3354 234.518,19.502 237.5,20C 239.794,24.088 241.961,28.2547 244,32.5C 244.499,28.1794 244.666,23.8461 244.5,19.5C 246.167,19.5 247.833,19.5 249.5,19.5C 249.5,27.5 249.5,35.5 249.5,43.5C 247.833,43.5 246.167,43.5 244.5,43.5C 244.5,41.8333 244.5,40.1667 244.5,38.5C 242.856,38.7135 241.356,38.3802 240,37.5C 238,33.5 236,29.5 234,25.5C 233.501,31.4908 233.334,37.4908 233.5,43.5C 231.833,43.5 230.167,43.5 228.5,43.5C 228.5,35.5 228.5,27.5 228.5,19.5 Z"/></g>
<g><path style="opacity:1" fill="#000000" d="M 260.5,23.5 C 260.5,22.1667 260.5,20.8333 260.5,19.5C 264.833,19.5 269.167,19.5 273.5,19.5C 273.5,20.8333 273.5,22.1667 273.5,23.5C 269.167,23.5 264.833,23.5 260.5,23.5 Z"/></g>
<g><path style="opacity:1" fill="#000000" d="M 110.5,23.5 C 110.5,25.5 110.5,27.5 110.5,29.5C 114.167,29.5 117.833,29.5 121.5,29.5C 121.5,30.8333 121.5,32.1667 121.5,33.5C 117.833,33.5 114.167,33.5 110.5,33.5C 110.5,35.5 110.5,37.5 110.5,39.5C 114.833,39.5 119.167,39.5 123.5,39.5C 123.5,40.8333 123.5,42.1667 123.5,43.5C 117.5,43.5 111.5,43.5 105.5,43.5C 105.5,36.8333 105.5,30.1667 105.5,23.5C 107.167,23.5 108.833,23.5 110.5,23.5 Z"/></g>
<g><path style="opacity:1" fill="#000000" d="M 260.5,23.5 C 260.5,25.5 260.5,27.5 260.5,29.5C 264.167,29.5 267.833,29.5 271.5,29.5C 271.5,30.8333 271.5,32.1667 271.5,33.5C 267.833,33.5 264.167,33.5 260.5,33.5C 260.5,35.5 260.5,37.5 260.5,39.5C 264.833,39.5 269.167,39.5 273.5,39.5C 273.5,40.8333 273.5,42.1667 273.5,43.5C 267.5,43.5 261.5,43.5 255.5,43.5C 255.5,36.8333 255.5,30.1667 255.5,23.5C 257.167,23.5 258.833,23.5 260.5,23.5 Z"/></g>
</svg>
